<svg
        xmlns="http://www.w3.org/2000/svg"
        viewBox="0 0 600 600"
        width="600"
        height="600"
>
    <!-- 1) All SVG defs go here -->
    <defs>
        <!-- From the Outer Outline SVG -->
        <radialGradient id="SvgjsRadialGradient1000">
            <stop stop-color="hsl(340, 45%, 50%)" offset="0"/>
            <stop stop-color="hsl(340, 45%, 80%)" offset="1"/>
        </radialGradient>
        <linearGradient id="SvgjsLinearGradient1001">
            <stop stop-color="hsl(162, 100%, 58%)" offset="0"/>
            <stop stop-color="hsl(270, 73%, 53%)" offset="1"/>
        </linearGradient>
    </defs>

    <!-- 2) Outer Outline Path (behind) -->
    <path
            d="M64.79057312011719,343.97906494140625C40.3141352335612,289.00524139404297,71.9895248413086,168.06282552083334,114.26701354980469,139.7905731201172C156.54450225830078,111.51832071940105,250.00000762939453,180.89005279541016,318.45550537109375,174.34555053710938C386.91100311279297,167.8010482788086,496.59685770670575,52.09423828125,525,100.5235595703125C553.4031422932943,148.952880859375,532.8534189860026,403.4031524658203,488.8743591308594,464.9214782714844C444.8952992757161,526.4398040771484,331.80627187093097,489.79058329264325,261.1256408691406,469.6335144042969C190.44500986735028,449.4764455159505,89.26701100667317,398.95288848876953,64.79057312011719,343.97906494140625C40.3141352335612,289.00524139404297,71.9895248413086,168.06282552083334,114.26701354980469,139.7905731201172"
            fill="url(#SvgjsLinearGradient1001)"
    />

    <!-- 3) Background Path (in front of the outline) -->
    <g transform="scale(0.95)">
        <g transform="translate(15, 17)">
            <path
                    d="M64.79057312011719,343.97906494140625C40.3141352335612,289.00524139404297,71.9895248413086,168.06282552083334,114.26701354980469,139.7905731201172C156.54450225830078,111.51832071940105,250.00000762939453,180.89005279541016,318.45550537109375,174.34555053710938C386.91100311279297,167.8010482788086,496.59685770670575,52.09423828125,525,100.5235595703125C553.4031422932943,148.952880859375,532.8534189860026,403.4031524658203,488.8743591308594,464.9214782714844C444.8952992757161,526.4398040771484,331.80627187093097,489.79058329264325,261.1256408691406,469.6335144042969C190.44500986735028,449.4764455159505,89.26701100667317,398.95288848876953,64.79057312011719,343.97906494140625C40.3141352335612,289.00524139404297,71.9895248413086,168.06282552083334,114.26701354980469,139.7905731201172"
                    fill="#171717"
            />
        </g>
    </g>

    <!-- 4) Icon (on top, centered). Adjust transform to fine-tune position. -->
    <!-- Icon’s native viewBox = 0 0 300 150, so to center in a 600×600,
         you can roughly translate by (600-300)/2=150 in X, and (600-150)/2=225 in Y. -->
    <g transform="translate(120, -50)">
        <path
                d="m263.837 306.59 21.9331-37.9944c1.2377-2.12998.48933-4.83565-1.61189-6.07335-2.1012-1.23768-4.83565-.5181-6.04456 1.61189l-22.221 38.4837c-16.9536-7.74281-36.0371-12.0604-56.5599-12.0604-20.5227 0-39.6063 4.31754-56.5599 12.0604l-22.221-38.4837c-1.2377-2.12999-3.94336-2.84957-6.07335-1.61189-2.13 1.2377-2.84959 3.94337-1.61189 6.07335l21.9331 37.9944c-37.8217 20.494-63.4392 58.7762-67.6703 103.592h264.407c-4.2312-44.8161-29.8487-83.0984-67.6991-103.592zm-125.209 66.4614c-6.13092 0-11.0817-4.97957-11.0817-11.0817 0-6.13093 4.97957-11.0817 11.0817-11.0817 6.13092 0 11.0817 4.97956 11.0817 11.0817.0289 6.10212-4.95079 11.0817-11.0817 11.0817zm121.381 0c-6.13091 0-11.0817-4.97957-11.0817-11.0817 0-6.13093 4.97958-11.0817 11.0817-11.0817 6.13093 0 11.0817 4.97956 11.0817 11.0817.0288 6.10212-4.95077 11.0817-11.0817 11.0817z"
                fill="#9061d1"
        />
    </g>
</svg>
