<svg xmlns="http://www.w3.org/2000/svg" version="1.1" xmlns:xlink="http://www.w3.org/1999/xlink" xmlns:svgjs="http://svgjs.dev/svgjs" viewBox="0 0 800 800" opacity="0.4"><defs><linearGradient x1="50%" y1="0%" x2="50%" y2="100%" id="ssscribble-grad"><stop stop-color="#955cd1" stop-opacity="1" offset="0%"></stop><stop stop-color="#5f9dc9" stop-opacity="1" offset="100%"></stop></linearGradient></defs><g fill="none" stroke-width="1" stroke="url(#ssscribble-grad)" stroke-linecap="round"><path d="M1184.29 525.48C1196.83 543.6 1177.38 566.64 1129.27 594.11 1058.43 621.35 972.86 652.51 882.12 686.7 794.71 719.69 719.55 754.34 663.06 789.08 629.31 820.53 620.05 849.58 633.98 873.99 669.68 891.98 721.02 902.24 781.86 902.59 848.94 894.06 913.53 873.97 970.26 841.87 1017.68 802.66 1049.97 754.3 1065.82 699.76 1066.14 647.32 1050.19 597.38 1020.21 555.81 977.78 530.56 926.06 523.54 868.42 539.1 805.32 578.66 741.38 641.41 679.09 724.27 617.26 818.74 560 918.22 508.24 1012.07 459.76 1088.08 417.31 1138.3 380.53 1154.81 347.26 1135.57 318.74 1081.45 294.06 998.87 271.82 902.22 252.07 803.38 233.9 718.54 216.91 664.22 200.4 648.65 183.72 676.77 167.36 745.66 150.23 844.88 132.11 958.22 113.98 1065.75 95.3 1146.95 76.37 1188.86 57.75 1186.49 39.48 1140.01 22.29 1058.48 6.28 954.48 -7.53 844.7 -18.17 745.23 -28.19 646.13 -16.87 669.63 7.75 770.64 29.76 854.88 58.13 935.67 92.03 1003.29 126.39 1053.34 163.36 1078.18 200.53 1076.94 232.24 1051.19 259.08 1003.6 277.76 939.94 283.99 863.5 277.31 782.15 255.59 701.68 218.35 623.2 165.88 553.39 99.59 494.33 23.99 444.83 -58.15 407.39 -141.4 380.8 -218.4 363.71 -284.51 354.73 -333.49 351.41 -360.7 354.11 -363.24 359.06 -339.72 364.12 -293.45 371.9 -226.95 377.47 -146.53 379.54 -62.79 382.44 17.44 380.77 84.7 373.89 129.21 367.15 146.83 354.88 134.29 336.76 91.74 318.64 25.93 295.1 -54.68 266.55 -142.72 238.13 -226.23 205.02 -296.19 167.94 -347.41 131.7 -373.12 92.56 -371.72 51.91 -344.53 13.96 -294.03 -23.17 -225.88 -57.27 -145.34 -85.36 -60.11 -107.01 22.89 -119.68 99.29 -122.85 162.98 -114.3 210.97 -92.74 241.96 -61.62 255.31 -18.78 252.69 33.76 234.71 88.3 205.64 144.77 169.28 197.47 125.9 237.38 81.71 262.35 39.86 266.72 -0.91 246.57 -35.18 201.56 -61.72 132.65 -82.95 46.17 -95.5 -52.18 -99.92 -152.58 -98.54 -242.2 -90.22 -312.08 -76.34 -352.14 -58.2 -356.81 -36.39 -324.26 -12.35 -257.57 14.06 -168.34 41.09 -67.22 67.6 29.78 95.1 104.33 121.07 145.5 144.78 144.3 168.72 98.83 189.94 15.81 208.06 -91.7 226.18 -205.04 240.78 -302.44 252.13 -367.77 263.72 -392.32 272.54 -371.44 279.21 -310.13 286.87 -218.31 293.42 -110.82 299.87 -3.94 308.71 88.87 319.09 154.8 332.35 187.33 349.88 184.12 372.19 148.68 400.56 88.83 434.73 11.15 476.17 -70.75 525.33 -146.36 579.8 -210.35 641.04 -252.94 707.75 -271.11 775.53 -265.28 844.6 -235.65 911.74 -186.66 971.85 -121.34 1023.54 -46.52 1062.91 31.83 1086.93 112.3 1093.76 187.64 1081.64 254.79 1052.52 314.82 1006.39 363.81 946.15 402.1 879.31 431.5 808.85 451.87 741.59 465.29 667.37 473.86 657.07 474.46 732.46 475.1 809.42 475.09 898.26 478.71 989.89 486.77 1074.09 494.58 1141.74 507.36 1184.29 525.48Q1184.29 525.48 1184.29 525.48" opacity="0.25"></path><path d="M1149.29 661.6C1147.19 695.43 1043.78 733.55 883.96 770.46 722.77 801.11 613.66 818.74 582.55 812.38 631.62 787.71 732.7 731.25 846.91 647.32 951.5 567.79 1011.03 499.32 1018.1 475.37 978.33 521.9 900.15 641.52 803.05 815.69 691.81 986.52 586.39 1100.32 495.43 1102.08 409.66 991.85 340.61 812.63 286.25 656.05 235.1 617.17 193.36 722.33 159.53 923.22 125.7 1104.6 101.39 1157.03 88.75 1059.92 79.32 868.29 86.83 681.53 113.98 582.72 146.31 604.03 196.03 719.06 255.12 863.13 300.1 986.95 329.71 1035.78 325.14 1004.14 273.74 905.52 174.1 770.68 34.29 634.17 -115.14 504.25 -246.55 405.44 -320.42 337.46 -314.11 290.39 -224.26 261.26 -76.12 238.15 70.63 221.04 167.19 198.07 169.29 164.25 69.3 130.42 -85.86 87.34 -233.46 40.66 -327.14 -0.02 -329.86 -32.43 -247.92 -43.99 -107.41 -34.65 49.05 8.44 181.75 86.22 285.22 213.74 192.45 254.03 93.73 50.54 15.25 -201.43 -6.76 -162.51 29.74 99.81 61.66 183.89 96.35 124.64 130.18 -56.7 164.01 -257.61 195.37 -355.94 227.24 -304.05 263.22 -134.43 307.37 64.04 366.13 199.09 437.12 222.15 529.25 138.7 641.65 3.1 757.58 -135.85 875.99 -215.37 976.79 -217.58 1037.87 -149.31 1047.27 -32.28 994.38 99.37 896.9 235.43 770.77 347.61 655.05 430.91 597.9 495.9 619.89 539.82 726.62 572.96 887.27 599.85 1049.3 627.78 1149.29 661.6Q1149.29 661.6 1149.29 661.6" opacity="0.24"></path><path d="M1114.28 633.75C1115.97 665.16 1028.39 684.91 885.76 690.4 730.96 691.96 609.45 673.14 548.79 631.82 557.9 586.6 623.41 526.08 718.06 464.44 824.86 429.94 909.65 429.17 957.81 482.28 970.8 589.23 944.04 740.99 889.27 905.19 812.31 1029.91 727 1078.78 644.58 1024.4 558.99 890.54 484.66 723.14 424.53 599.56 365.27 588.23 319.52 699.61 288.11 888.21 256.7 1059.86 241.11 1123.8 241.13 1056.53 242.03 893.13 259.22 708.37 290.37 576.87 318.36 539.27 351.94 597.08 380.48 711.4 386.84 846.05 368.51 945.33 314.35 985.3 225.02 966.02 102.98 893.08 -36.51 791.45 -163.86 670.24 -257.55 555.69 -289.68 459.41 -252.04 371.51 -148.41 304.4 -5.74 253.87 124.75 208.06 205.97 170.89 204.28 139.48 114.15 108.07 -26.68 83.9 -168.04 70.47 -272.19 61.75 -302.75 71.72 -257.03 105.18 -149.98 147.02 -10.59 209.84 127.21 282.65 243.6 335.86 317.98 363.72 349.06 341.85 339.79 260.72 304.19 124.21 258.6 -43.14 202.33 -190.17 156.13 -276.17 126.28 -261.61 100.97 -153.15 93.47 13.71 101.57 165 112.37 220.18 134.31 149.91 165.72 -21.71 197.13 -210.33 236.52 -315.37 284.96 -291.95 336.1 -156.27 400.74 29 480.49 185.9 564.77 263.32 662.7 242.64 767.38 150.64 861.38 19.15 942.09 -95.36 992.52 -161.15 1002.61 -173.11 965.47 -127.25 881.79 -44.35 776.69 65.68 665.47 177.93 581.44 277.59 558.75 373.34 607.18 449.31 723.46 507 876.94 560.74 1024.15 602.34 1114.28 633.75Q1114.28 633.75 1114.28 633.75" opacity="0.38"></path><path d="M1079.28 459.4C1084.19 488.39 1011.53 498.44 886.82 490.55 742.5 482.56 615.67 457.9 532.81 421.9 506.01 394.51 532.98 370.44 597.23 364.86 687.92 392.21 776.82 457.86 846.97 566.35 898.05 699.93 916.7 845.32 906.77 968.66 874.92 1033.81 825.84 1021.42 769.47 926.31 704.84 784.97 643.1 639.13 589.92 549.68 535.57 562.55 492.71 677.39 463.71 853.21 434.72 1014.49 420.96 1087.23 420.63 1047.48 419.13 915.48 428.13 743.97 442.5 595.15 448.63 509.98 449.96 507.98 437.12 573.09 402.37 684.44 342.09 797.37 253.01 881.54 144.85 930.25 21.58 929.12 -99.3 888.63 -193.74 817.18 -246.71 730.69 -241.16 644.51 -179.56 553.41 -69.23 474.96 63.89 412.97 177.41 352.19 244.2 306.99 239.28 277.99 158.68 248.99 32.33 237.57 -100.43 243.66 -210.05 250.97 -262.81 276.67 -250.54 317.53 -180.15 353.46 -68.39 392.21 58.56 418.98 184.33 414.78 286.45 374.3 356.32 287.6 393.98 165.44 401.86 18.13 390.46 -123.41 360.9 -218.72 328.69 -242.74 302.58 -178.84 273.84 -51.29 257.93 103.71 256.95 224.53 256.63 253.12 270.77 174.54 299.76 13.28 328.76 -162.54 371.23 -271.54 426.24 -273.24 481.9 -172.62 550.55 -10.29 629.55 152.31 705.9 268.69 785.86 307.09 860.1 272.13 916.2 178.99 949.95 67.98 950.29 -27.59 918.42 -98.08 850.68 -122.11 755.1 -104.77 658.33 -54.51 572.57 17.3 523.44 94.94 532.42 181.18 601.69 258.59 722.5 321.26 866.46 383.84 998.68 430.41 1079.28 459.4Q1079.28 459.4 1079.28 459.4" opacity="0.83"></path><path d="M1044.08 247.68C1052 274.26 993.52 286.39 887.16 287 756.65 290.3 631.04 287.98 533.92 287.82 477.84 301.04 467.87 329.81 496.36 383.53 557.72 461.02 631.89 566.42 703.36 692.38 771.48 815.05 819.26 922.23 844.38 987.13 853.97 992.36 843.94 931.56 820.47 814.21 787.89 680.17 750.2 562.81 713.1 506.71 673.79 539.87 639.52 655.5 612.94 818.08 586.36 968.37 568.73 1047.2 557.92 1031.97 544.9 932.56 534.24 783.26 520.76 632.39 498.17 515.75 464.42 461.43 413.87 470.31 347.79 534.57 261.85 626.25 158.89 718.2 52.59 802.69 -53.08 855.55 -142.12 874.38 -198.29 866.6 -212.16 833.25 -175.56 785.98 -97.92 726.65 12.56 667.12 132.8 615.12 228.91 561.17 282 519.4 274.08 492.83 202.35 466.24 90.3 456.1 -31.92 459.93 -176.4 467.38 -153.15 482.25 -10.34 443.88 106.81 384.09 217.5 293.08 309.87 173.76 382.75 46.97 430.2 -76.22 456.4 -168.17 464.17 -204.73 460.99 -174.27 454.7 -77.12 441.52 54.25 433.6 188.43 435.28 277.6 435.91 282.6 448.67 198.42 475.25 48.14 501.83 -114.45 540.96 -224.72 590.46 -247.64 638.9 -181.3 695.18 -48.82 754.41 104.7 806.76 241.54 853.72 326.19 886.91 348.64 901.68 311.42 892.39 235.75 854.34 147.91 796.81 56.79 717.63 -10.45 628.15 -46.98 552.11 -59.73 497.75 -44.73 482.74 -11.89 518.29 34.32 601.96 85 722.43 131.81 854.92 181.34 972.35 221.1 1044.08 247.68Q1044.08 247.68 1044.08 247.68" opacity="0.74"></path><path d="M1009.29 131.6C1018.98 155.77 972.93 177.28 884.3 198.53 769.94 222.98 651.54 253.19 548.76 294.54 472.74 346.1 432.37 415.43 426.26 504.01 452.39 600.39 499.04 707.32 554.29 812.13 617.8 894.87 673.48 946.63 715.63 951.32 751.05 907.81 769.97 817.3 774.25 696.45 771.89 581.65 759.43 496.57 740.56 471.26 719.6 520.44 696.13 634.28 671.97 783.22 647.81 921.95 624.1 1004.17 599.49 1009.88 572.79 942.37 541.3 821.48 501.78 682.07 455.63 552.06 396.92 460.55 324.26 418.43 244.87 426.48 154.5 473.29 59.32 540.25 -27.59 621.59 -102.89 693.68 -154.18 746.72 -173.23 786.92 -154.52 803.54 -96.22 800.96 -11.15 787.2 93.49 762.87 198.53 734.56 277.83 703.16 318.98 673.83 309.29 649.67 246.64 625.5 149.02 607.65 38.92 593.49 -67.86 576.22 -146.34 556.61 -185.05 528.5 -183.32 489.21 -140.7 432.8 -68.21 355.37 26.01 265.1 127.21 158.32 223.48 45.31 313.46 -53.32 386.95 -128.79 442.95 -162.01 485.56 -145.07 514.35 -75.23 534.16 37.05 551.53 212.32 587.8 265.54 620.18 83.28 644.35 -65.66 675.08 -174.63 710.1 -214.5 743.27 -179.88 777.03 -81.06 806.62 51.44 828.69 190 839.7 302.19 834.32 370.87 815.57 391.34 776.76 368.23 718.45 317.17 653.86 244.03 581.31 171.78 512.23 112.64 464.9 61.3 443.95 31.76 459.93 22.07 516.35 22.6 608.58 36.34 724.7 57.46 844.12 81.77 946.64 107.44 1009.29 131.6Q1009.29 131.6 1009.29 131.6" opacity="0.19"></path><path d="M974.12 183.49C985.6 205.24 951.23 235.19 880.02 273.8 783.47 314.22 676.95 366.25 575.92 430.7 489.19 498.31 426.85 577.7 391.4 664.46 382.7 745.11 396.13 820.48 424.11 878.59 466.36 908.85 510.79 905.33 550.87 862.11 592.1 788.74 623.04 689.1 642.15 581.04 658.56 493.59 663.78 441.42 658.86 442.86 652.71 503.56 638.49 613.18 616.75 748.11 595 874.73 566.75 957.74 531.89 980.38 495.81 942.35 451.03 853.01 396.93 735.53 340.14 609.47 273.38 499.91 198.64 421.62 125.04 379.25 49.39 373.92 -21.36 396.61 -77.84 443.9 -117.05 499.61 -130.99 552.58 -118.19 607.15 -75.35 648.22 -4.56 673.64 80.52 693.88 174.67 700.02 262.82 694.57 325.64 686.93 355.6 671.53 344.12 649.78 289.63 628.04 205.75 600.98 108.82 567.62 9.3 532.06 -72.61 486.36 -126.39 428.44 -150.64 365.34 -140.41 288.46 -101.16 200.37 -38.11 113.89 39.87 26.95 122.98 -48.84 209.98 -100.04 290.41 -120.51 360.17 -100.79 423.73 -45.15 475.34 44.89 516.34 155 551.95 256.54 580.79 333.52 605.38 363.18 628.3 332.17 650.11 244.78 671.86 118.17 693.6 -16.76 714.25 -121.99 732.35 -174.32 748.76 -167.38 759.49 -102.85 761.57 0.52 758.25 124.53 742.45 243.67 712.4 339.69 676.16 405.56 626.96 434.87 568.46 433.12 513.85 403.5 461.64 359.36 421.24 312.22 404.63 258.98 413.91 215.4 454.09 185.48 523.82 158.71 618.12 146.24 726.02 146.84 831.35 149.24 919.63 161.74 974.12 183.49Q974.12 183.49 974.12 183.49" opacity="0.09"></path><path d="M939.29 371.22C951.54 390.55 927.06 421.77 871.86 463.58 793.53 505.34 702.31 557.15 609.64 616.34 521.76 672.63 448.06 731.4 392.78 786.32 347.63 842.73 360.56 824.04 394.43 732.2 423.68 650.44 449.24 560.2 467.96 476.7 487.42 420.36 498.04 398.83 498.81 421.81 499.37 489.48 490.25 592.61 470.92 713.22 451.59 827.23 422.97 908.5 385.95 943.79 348.73 931.38 302.94 873.68 249.99 784.68 197.77 676.71 140.37 568.34 81.34 473.78 28.13 398.05 -20.52 349.25 -58.85 326.01 -82.34 326.2 -87.93 343.26 -71.57 368.92 -36.42 404.81 19.94 438.73 93.65 465.42 172.15 493.3 252.37 510.41 323.24 515.41 370.98 519.96 391.54 512.82 379.29 493.49 332.93 474.17 262.54 443.57 179.52 402.57 90.2 361.12 10.18 308.85 -51.67 247.48 -94.35 187.29 -110.68 121.53 -102.26 55.85 -72.64 0.39 -25.22 -44.42 33.11 -69.96 101.05 -72.06 170.59 -46.19 236.69 9.4 303.03 83.82 362.03 174.85 412.31 268.66 460.42 343.49 500.5 390.21 532.93 395.18 564.42 352.45 589.85 267.28 609.18 153.28 628.51 32.67 640.82 -66.55 645.79 -126.79 649.82 -142.33 644.9 -109.8 630.28 -39.3 613.51 58.35 586.34 165.93 549.79 267.82 513.49 357.83 471.7 424.69 429.09 466.81 383.83 485.97 390.63 434.63 464.31 398.37 540.34 372.67 631.37 356.02 728.15 350.72 818.62 345.36 892.94 351.89 939.29 371.22Q939.29 371.22 939.29 371.22" opacity="0.30"></path><path d="M904.28 576.92C902.19 610.75 798.68 673.53 647.02 744.28 489.01 794.49 370.6 811.65 305.61 761.52 291.73 589.37 329.12 423.43 294.93 678.28 261.1 859.63 197.39 909.09 117.27 821.09 47.35 645.79 -15.37 466.36 -40.86 342.91 -20.2 279.34 62.32 271.26 195.53 280.51 322.39 307.5 412.19 312.38 414.28 278.55 314.29 244.73 166.65 175.4 35.48 89.78 -54.31 21.91 -67.38 -22.79 -20.03 -3.56 69.85 75.54 174.39 219.09 265 369.6 357.76 432.8 424.74 369.63 458.56 188.28 492.39 -12.62 489.87 -106.78 455.72 -61.2 423.74 89.6 371.99 271.63 326.43 415.04 323.43 509.51 372.37 545.14 486.97 553.56 642.94 541.42 804.29 543.09 904.28 576.92Q904.28 576.92 904.28 576.92" opacity="0.61"></path><path d="M869.28 671.66C874.19 700.66 801.04 727.55 683.05 738.61 545.3 734.06 421.75 689.96 331.43 599.63 268.71 499.47 234.86 391.78 215.28 327.32 206.38 351.18 192.09 467.4 163.1 643.21 134.1 804.49 93.15 873.75 51.8 838.09 21.13 721.27 9.73 569.58 34.45 434.06 86.77 320.52 179.56 250.16 296.05 210.83 392.79 187.95 454.19 168.63 449.28 139.64 368.69 110.65 248.74 74.72 131.74 47.35 31.23 36.43 -18.92 61.54 -20.34 137.07 12.79 234.58 71.08 355.52 131.94 451.09 200.27 465.51 254.37 384.52 283.36 223.27 312.93 -4.8 278.29 95.25 276.63 302.64 316.06 430.98 396.97 520.33 518.74 575.13 656.99 614.32 788.69 642.67 869.28 671.66Q869.28 671.66 869.28 671.66" opacity="0.78"></path><path d="M834.15 596.11C844.05 620.27 797.36 620.61 713.49 595.04 606.16 564.1 497.12 502.89 404.08 421.15 321.65 353.16 260.75 299.47 218.4 290.77 183.01 344.92 155.14 459.2 130.98 608.13 97.73 786.14 94.24 722.71 156.6 561.98 217.96 446.64 301.38 352.66 390.99 286.47 457.16 227.95 494.05 188.04 484.15 163.88 421.32 139.72 328.78 133.59 232.5 150.24 137.19 174.55 70.34 230.82 37.33 314.49 25.48 393.02 39.18 468.46 65.81 508.15 99.86 485.21 133.18 396.86 157.34 258.13 181.5 109.2 194.22 4.71 202.05 -31.71 217.29 -5.31 241.3 74 284.81 173.66 349.49 287.07 441.97 386 555 458.8 668.98 526.24 771.32 571.94 834.15 596.11Q834.15 596.11 834.15 596.11" opacity="0.38"></path><path d="M799.29 397.76C811.54 417.08 786.04 410.76 733.25 383.48 660.23 358.12 578.65 317.98 501.67 275.87 424.53 252.98 359.68 250.09 310.86 281.31 264.6 349.63 231.17 452.62 211.84 573.22 192.51 687.23 189.12 764.99 201.87 796.55 217.19 788.02 251.88 742.21 303.68 677.71 355.33 597.81 416.4 520.98 475.25 459.7 513.88 398.28 531.54 355.55 519.29 336.22 472.94 316.89 406.5 322.79 334.54 350.72 256.28 378.5 191.28 425.16 146.56 479.72 110.61 518.89 94.69 544.19 95.06 538.55 99.9 492.83 113.73 407.23 133.06 293.22 152.39 172.62 175.39 77.46 204.05 23.31 237.17 6.26 283.26 29.65 344.54 77.88 414.6 145.33 500.09 215.63 592.51 274.49 678.64 335.27 752.91 378.42 799.28 397.75Q799.29 397.76 799.29 397.76" opacity="0.18"></path><path d="M764.2 200.66C769.25 229.65 695.12 213.32 599.33 202.33 487.62 243.57 401.18 362.36 372.19 538.16 343.2 699.44 377.14 761.55 450.84 735.71 508.63 659.63 559.25 577.37 554.2 548.38 473.48 519.38 366.24 549.14 288.33 587.22 215.17 575.06 192 489.44 220.99 328.16 249.98 152.36 325.66 57.08 436.82 53.84 552.73 102.83 683.48 171.66 764.2 200.66Q764.2 200.66 764.2 200.66" opacity="0.12"></path><path d="M729.29 128.58C718.08 167.23 582.4 279.4 543.75 503.22 505.09 701.98 578.08 706.27 589.29 667.62 468.57 628.96 345.9 561.98 384.56 363.22 423.21 139.4 608.57 89.92 729.29 128.58Q729.29 128.58 729.29 128.58" opacity="0.38"></path></g></svg>