<svg
xmlns="http://www.w3.org/2000/svg"
viewBox="0 0 600 600"
width="600"
height="600"
>
<!-- 1) All SVG defs go here -->
    <path d="M448.8219909667969,139.7905731201172C407.1989491780599,87.17277018229166,360.4712028503418,49.34554799397787,301.1780090332031,50.26177978515625C241.88481521606445,51.17801157633463,131.8062833150228,89.1361338297526,93.06282806396484,145.2879638671875C54.3193728129069,201.4397939046224,26.308900197347008,324.7382100423177,68.71727752685547,387.1727600097656C111.12565485636392,449.60730997721356,267.1465950012207,523.4292907714844,347.5130920410156,519.895263671875C427.87958908081055,516.3612365722656,534.0314432779948,429.31937917073566,550.916259765625,365.9685974121094C567.8010762532552,302.6178156534831,490.4450327555339,192.40837605794272,448.8219909667969,139.7905731201172C407.1989491780599,87.17277018229166,360.4712028503418,49.34554799397787,301.1780090332031,50.26177978515625" fill="url(&quot;#SvgjsLinearGradient1001&quot;)" stroke-width="0" stroke="hsl(340, 45%, 30%)"></path>
    <defs>
        <radialGradient id="SvgjsRadialGradient1000">
            <stop stop-color="hsl(340, 45%, 50%)" offset="0"></stop>
            <stop stop-color="hsl(340, 45%, 80%)" offset="1"></stop>
        </radialGradient>
        <linearGradient id="SvgjsLinearGradient1001">
            <stop stop-color="hsl(162, 100%, 58%)" offset="0"></stop>
            <stop stop-color="hsl(270, 73%, 53%)" offset="1"></stop>
        </linearGradient>
    </defs>

<!-- 3) Background Path (in front of the outline) -->
<g transform="scale(0.95)">
    <g transform="translate(15, 17)">
        <path d="M448.8219909667969,139.7905731201172C407.1989491780599,87.17277018229166,360.4712028503418,49.34554799397787,301.1780090332031,50.26177978515625C241.88481521606445,51.17801157633463,131.8062833150228,89.1361338297526,93.06282806396484,145.2879638671875C54.3193728129069,201.4397939046224,26.308900197347008,324.7382100423177,68.71727752685547,387.1727600097656C111.12565485636392,449.60730997721356,267.1465950012207,523.4292907714844,347.5130920410156,519.895263671875C427.87958908081055,516.3612365722656,534.0314432779948,429.31937917073566,550.916259765625,365.9685974121094C567.8010762532552,302.6178156534831,490.4450327555339,192.40837605794272,448.8219909667969,139.7905731201172C407.1989491780599,87.17277018229166,360.4712028503418,49.34554799397787,301.1780090332031,50.26177978515625" fill="#171717"></path>
    </g>
</g>

<!-- 4) Icon (on top, centered). Adjust transform to fine-tune position. -->
<!-- Icon’s native viewBox = 0 0 300 150, so to center in a 600×600,
     you can roughly translate by (600-300)/2=150 in X, and (600-150)/2=225 in Y. -->
<g transform="scale(0.4)">
    <g transform="translate(420, 390)">
        <rect width="630" height="630" fill="#9061d1"/>
        <path d="m423.2 492.19c12.69 20.72 29.2 35.95 58.4 35.95 24.53 0 40.2-12.26 40.2-29.2 0-20.3-16.1-27.49-43.1-39.3l-14.8-6.35c-42.72-18.2-71.1-41-71.1-89.2 0-44.4 33.83-78.2 86.7-78.2 37.64 0 64.7 13.1 84.2 47.4l-46.1 29.6c-10.15-18.2-21.1-25.37-38.1-25.37-17.34 0-28.33 11-28.33 25.37 0 17.76 11 24.95 36.4 35.95l14.8 6.34c50.3 21.57 78.7 43.56 78.7 93 0 53.3-41.87 82.5-98.1 82.5-54.98 0-90.5-26.2-107.88-60.54zm-209.13 5.13c9.3 16.5 17.76 30.45 38.1 30.45 19.45 0 31.72-7.61 31.72-37.2v-201.3h59.2v202.1c0 61.3-35.94 89.2-88.4 89.2-47.4 0-74.85-24.53-88.81-54.075z"/>
    </g>
</g>
</svg>
