<svg
xmlns="http://www.w3.org/2000/svg"
viewBox="0 0 600 600"
width="600"
height="600"
>
<!-- 1) All SVG defs go here -->
    <path d="M451.9633483886719,244.2408447265625C434.2931874593099,198.5602149963379,455.62825775146484,115.3141352335612,411.9109802246094,95.81151580810547C368.1937026977539,76.30889638264973,235.73297882080078,101.3088976542155,189.65968322753906,127.22512817382812C143.58638763427734,153.14135869344076,156.6753946940104,219.76439412434897,135.47120666503906,251.30889892578125C114.2670186360677,282.85340372721356,62.17277526855469,275.39267985026044,62.43455505371094,316.4921569824219C62.69633483886719,357.5916341145833,87.69633738199869,469.3717295328776,137.04188537597656,497.90576171875C186.38743336995444,526.4397939046224,295.02616628011066,509.03142801920575,358.5078430175781,487.69635009765625C421.9895197550456,466.36127217610675,502.3560282389323,410.47121175130206,517.9319458007812,369.8952941894531C533.5078633626302,329.3193766276042,469.6335093180339,289.9214744567871,451.9633483886719,244.2408447265625C434.2931874593099,198.5602149963379,455.62825775146484,115.3141352335612,411.9109802246094,95.81151580810547" fill="url(&quot;#SvgjsLinearGradient1001&quot;)" stroke-width="0" stroke="hsl(340, 45%, 30%)"></path>

    <defs>
        <radialGradient id="SvgjsRadialGradient1000">
            <stop stop-color="hsl(340, 45%, 50%)" offset="0"></stop>
            <stop stop-color="hsl(340, 45%, 80%)" offset="1"></stop>
        </radialGradient>
        <linearGradient id="SvgjsLinearGradient1001">
            <stop stop-color="hsl(162, 100%, 58%)" offset="0"></stop>
            <stop stop-color="hsl(270, 73%, 53%)" offset="1"></stop>
        </linearGradient>
    </defs>

<!-- 3) Background Path (in front of the outline) -->
<g transform="scale(0.95)">
    <g transform="translate(15, 17)">
        <path d="M451.9633483886719,244.2408447265625C434.2931874593099,198.5602149963379,455.62825775146484,115.3141352335612,411.9109802246094,95.81151580810547C368.1937026977539,76.30889638264973,235.73297882080078,101.3088976542155,189.65968322753906,127.22512817382812C143.58638763427734,153.14135869344076,156.6753946940104,219.76439412434897,135.47120666503906,251.30889892578125C114.2670186360677,282.85340372721356,62.17277526855469,275.39267985026044,62.43455505371094,316.4921569824219C62.69633483886719,357.5916341145833,87.69633738199869,469.3717295328776,137.04188537597656,497.90576171875C186.38743336995444,526.4397939046224,295.02616628011066,509.03142801920575,358.5078430175781,487.69635009765625C421.9895197550456,466.36127217610675,502.3560282389323,410.47121175130206,517.9319458007812,369.8952941894531C533.5078633626302,329.3193766276042,469.6335093180339,289.9214744567871,451.9633483886719,244.2408447265625C434.2931874593099,198.5602149963379,455.62825775146484,115.3141352335612,411.9109802246094,95.81151580810547" fill="#171717"></path>
    </g>
</g>

<!-- 4) Icon (on top, centered). Adjust transform to fine-tune position. -->
<!-- Icon’s native viewBox = 0 0 300 150, so to center in a 600×600,
     you can roughly translate by (600-300)/2=150 in X, and (600-150)/2=225 in Y. -->
<g transform="scale(0.7)">
    <g transform="translate(220, 170)">
        <path fill-rule="evenodd" clip-rule="evenodd" fill="#9061d1" d="M117.151,349.592c0,0-17.265,10.049,12.301,13.44   c35.824,4.09,54.13,3.501,93.596-3.959c0,0,10.397,6.504,24.892,12.137C159.439,409.127,47.644,369.013,117.151,349.592   L117.151,349.592z"/>
        <path fill-rule="evenodd" clip-rule="evenodd" fill="#9061d1" d="M106.331,300.104c0,0-19.367,14.339,10.221,17.397   c38.271,3.951,68.483,4.275,120.792-5.792c0,0,7.218,7.332,18.585,11.339C148.943,354.342,29.782,325.51,106.331,300.104   L106.331,300.104z"/>
        <path fill-rule="evenodd" clip-rule="evenodd" fill="#9061d1" d="M197.494,216.145c21.818,25.115-5.721,47.697-5.721,47.697   s55.367-28.577,29.945-64.38c-23.752-33.373-41.962-49.951,56.623-107.124C278.342,92.338,123.587,130.979,197.494,216.145   L197.494,216.145z"/>
        <path fill-rule="evenodd" clip-rule="evenodd" fill="#9061d1" d="M314.542,386.202c0,0,12.781,10.536-14.077,18.684   c-51.071,15.469-212.604,20.135-257.47,0.619c-16.117-7.02,14.121-16.75,23.635-18.805c9.92-2.146,15.584-1.754,15.584-1.754   c-17.937-12.631-115.935,24.807-49.772,35.544C212.871,449.736,361.337,407.317,314.542,386.202L314.542,386.202z"/>
        <path fill-rule="evenodd" clip-rule="evenodd" fill="#9061d1" d="M125.46,248.822c0,0-82.155,19.519-29.092,26.613   c22.412,2.999,67.063,2.309,108.685-1.183c34.006-2.854,68.133-8.958,68.133-8.958s-11.982,5.14-20.657,11.06   C169.085,298.301,7.917,288.08,54.322,265.642C93.549,246.665,125.46,248.822,125.46,248.822L125.46,248.822z"/>
        <path fill-rule="evenodd" clip-rule="evenodd" fill="#9061d1" d="M272.846,331.198c84.818-44.063,45.597-86.412,18.223-80.708   c-6.694,1.397-9.697,2.607-9.697,2.607s2.494-3.907,7.243-5.588c54.155-19.03,95.794,56.146-17.464,85.919   C271.15,333.428,272.453,332.248,272.846,331.198L272.846,331.198z"/>
        <path fill-rule="evenodd" clip-rule="evenodd" fill="#9061d1" d="M221.719,0c0,0,46.963,46.99-44.557,119.227   c-73.393,57.969-16.734,91.009-0.026,128.778c-42.845-38.653-74.271-72.684-53.192-104.352   C154.898,97.174,240.663,74.632,221.719,0L221.719,0z"/>
        <path fill-rule="evenodd" clip-rule="evenodd" fill="#9061d1" d="M133.799,450.637c81.397,5.204,206.426-2.896,209.385-41.415   c0,0-5.688,14.602-67.276,26.188c-69.481,13.081-155.197,11.558-206.016,3.167C69.892,438.577,80.303,447.194,133.799,450.637   L133.799,450.637z"/>
    </g>
</g>
</svg>
