<svg xmlns="http://www.w3.org/2000/svg" version="1.1" xmlns:xlink="http://www.w3.org/1999/xlink" xmlns:svgjs="http://svgjs.dev/svgjs" viewBox="0 0 600 600">
    <path d="M374.21466064453125,168.0628204345703C349.21466064453125,148.95287322998047,317.93192799886066,87.82722473144531,282.329833984375,87.17277526855469C246.7277399698893,86.51832580566406,182.59162394205728,127.617800394694,160.6020965576172,164.13612365722656C138.6125691731771,200.65444691975912,142.2774861653646,266.88480885823566,150.39266967773438,306.28271484375C158.50785319010416,345.68062082926434,168.58639017740884,385.47120157877606,209.29319763183594,400.5235595703125C250.00000508626303,415.57591756184894,349.7382278442383,406.80628458658856,394.6335144042969,396.59686279296875C439.52880096435547,386.38744099934894,472.3821970621745,371.72776285807294,478.6649169921875,339.26702880859375C484.9476369222005,306.80629475911456,449.7382100423177,230.36649322509766,432.329833984375,201.83245849609375C414.9214579264323,173.29842376708984,399.21466064453125,187.17276763916016,374.21466064453125,168.0628204345703C349.21466064453125,148.95287322998047,317.93192799886066,87.82722473144531,282.329833984375,87.17277526855469" transform="matrix(0.49999999999999956,-0.8660254037844394,0.8660254037844394,0.49999999999999956,-58.800253474724514,393.9133200414665)" fill="url(&quot;#SvgjsLinearGradient1001&quot;)" stroke-width="0" stroke="hsl(340, 45%, 30%)"></path>
    <defs>
        <radialGradient id="SvgjsRadialGradient1000">
            <stop stop-color="hsl(340, 45%, 50%)" offset="0"></stop>
            <stop stop-color="hsl(340, 45%, 80%)" offset="1"></stop>
        </radialGradient>
        <linearGradient id="SvgjsLinearGradient1001">
            <stop stop-color="hsl(162, 100%, 58%)" offset="0"></stop>
            <stop stop-color="hsl(270, 73%, 53%)" offset="1"></stop>
        </linearGradient>
    </defs>
</svg>