<svg xmlns="http://www.w3.org/2000/svg" version="1.1" xmlns:xlink="http://www.w3.org/1999/xlink" xmlns:svgjs="http://svgjs.dev/svgjs" viewBox="0 0 2400 800"><defs><linearGradient x1="50%" y1="0%" x2="50%" y2="100%" id="sssurf-grad"><stop stop-color="hsl(208, 77%, 50%)" stop-opacity="1" offset="0%"></stop><stop stop-color="hsl(208, 74%, 93%)" stop-opacity="1" offset="100%"></stop></linearGradient></defs><g fill="#130c1c" transform="matrix(1,0,0,1,8.247314453125,137.92840576171875)"><path d="M-10,10C47.63888888888889,15.208333333333334,153.47222222222223,41.875,266.6666666666667,35C379.86111111111114,28.125,422.2222222222223,-19.458333333333332,533.3333333333334,-23C644.4444444444445,-26.541666666666668,688.8888888888889,17.791666666666668,800,18C911.1111111111111,18.208333333333332,955.5555555555557,-30.541666666666664,1066.6666666666667,-22C1177.7777777777778,-13.458333333333334,1222.2222222222224,56.5,1333.3333333333335,59C1444.4444444444446,61.5,1488.888888888889,-9.791666666666666,1600,-10C1711.111111111111,-10.208333333333334,1755.5555555555557,60.708333333333336,1866.6666666666667,58C1977.7777777777778,55.291666666666664,2022.2222222222224,-20.5,2133.3333333333335,-23C2244.4444444444443,-25.5,2292.3611111111113,-42.125,2400,46C2507.6388888888887,134.125,3254.1666666666665,222.08333333333331,2650,400C2045.8333333333335,577.9166666666667,156.25,795.8333333333334,-500,900" transform="matrix(1,0,0,1,0,75)" opacity="0.05"></path><path d="M-10,10C47.63888888888889,15.208333333333334,153.47222222222223,41.875,266.6666666666667,35C379.86111111111114,28.125,422.2222222222223,-19.458333333333332,533.3333333333334,-23C644.4444444444445,-26.541666666666668,688.8888888888889,17.791666666666668,800,18C911.1111111111111,18.208333333333332,955.5555555555557,-30.541666666666664,1066.6666666666667,-22C1177.7777777777778,-13.458333333333334,1222.2222222222224,56.5,1333.3333333333335,59C1444.4444444444446,61.5,1488.888888888889,-9.791666666666666,1600,-10C1711.111111111111,-10.208333333333334,1755.5555555555557,60.708333333333336,1866.6666666666667,58C1977.7777777777778,55.291666666666664,2022.2222222222224,-20.5,2133.3333333333335,-23C2244.4444444444443,-25.5,2292.3611111111113,-42.125,2400,46C2507.6388888888887,134.125,3254.1666666666665,222.08333333333331,2650,400C2045.8333333333335,577.9166666666667,156.25,795.8333333333334,-500,900" transform="matrix(1,0,0,1,0,150)" opacity="0.29"></path><path d="M-10,10C47.63888888888889,15.208333333333334,153.47222222222223,41.875,266.6666666666667,35C379.86111111111114,28.125,422.2222222222223,-19.458333333333332,533.3333333333334,-23C644.4444444444445,-26.541666666666668,688.8888888888889,17.791666666666668,800,18C911.1111111111111,18.208333333333332,955.5555555555557,-30.541666666666664,1066.6666666666667,-22C1177.7777777777778,-13.458333333333334,1222.2222222222224,56.5,1333.3333333333335,59C1444.4444444444446,61.5,1488.888888888889,-9.791666666666666,1600,-10C1711.111111111111,-10.208333333333334,1755.5555555555557,60.708333333333336,1866.6666666666667,58C1977.7777777777778,55.291666666666664,2022.2222222222224,-20.5,2133.3333333333335,-23C2244.4444444444443,-25.5,2292.3611111111113,-42.125,2400,46C2507.6388888888887,134.125,3254.1666666666665,222.08333333333331,2650,400C2045.8333333333335,577.9166666666667,156.25,795.8333333333334,-500,900" transform="matrix(1,0,0,1,0,225)" opacity="0.53"></path><path d="M-10,10C47.63888888888889,15.208333333333334,153.47222222222223,41.875,266.6666666666667,35C379.86111111111114,28.125,422.2222222222223,-19.458333333333332,533.3333333333334,-23C644.4444444444445,-26.541666666666668,688.8888888888889,17.791666666666668,800,18C911.1111111111111,18.208333333333332,955.5555555555557,-30.541666666666664,1066.6666666666667,-22C1177.7777777777778,-13.458333333333334,1222.2222222222224,56.5,1333.3333333333335,59C1444.4444444444446,61.5,1488.888888888889,-9.791666666666666,1600,-10C1711.111111111111,-10.208333333333334,1755.5555555555557,60.708333333333336,1866.6666666666667,58C1977.7777777777778,55.291666666666664,2022.2222222222224,-20.5,2133.3333333333335,-23C2244.4444444444443,-25.5,2292.3611111111113,-42.125,2400,46C2507.6388888888887,134.125,3254.1666666666665,222.08333333333331,2650,400C2045.8333333333335,577.9166666666667,156.25,795.8333333333334,-500,900" transform="matrix(1,0,0,1,0,300)" opacity="0.76"></path><path d="M-10,10C47.63888888888889,15.208333333333334,153.47222222222223,41.875,266.6666666666667,35C379.86111111111114,28.125,422.2222222222223,-19.458333333333332,533.3333333333334,-23C644.4444444444445,-26.541666666666668,688.8888888888889,17.791666666666668,800,18C911.1111111111111,18.208333333333332,955.5555555555557,-30.541666666666664,1066.6666666666667,-22C1177.7777777777778,-13.458333333333334,1222.2222222222224,56.5,1333.3333333333335,59C1444.4444444444446,61.5,1488.888888888889,-9.791666666666666,1600,-10C1711.111111111111,-10.208333333333334,1755.5555555555557,60.708333333333336,1866.6666666666667,58C1977.7777777777778,55.291666666666664,2022.2222222222224,-20.5,2133.3333333333335,-23C2244.4444444444443,-25.5,2292.3611111111113,-42.125,2400,46C2507.6388888888887,134.125,3254.1666666666665,222.08333333333331,2650,400C2045.8333333333335,577.9166666666667,156.25,795.8333333333334,-500,900" transform="matrix(1,0,0,1,0,375)" opacity="1.00"></path></g></svg>